<?xml version="1.0" encoding="UTF-8" standalone="no"?>
<svg viewBox="0 0 462 408" version="1.1" xmlns="http://www.w3.org/2000/svg" xmlns:xlink="http://www.w3.org/1999/xlink">
    <title>re-run-icon</title>
    <defs/>
    <g id="Page-1" stroke="none" stroke-width="1" fill="none" fill-rule="evenodd" >
        <g id="run-v2" transform="translate(41.000000, 1.000000)">
            <g>
                <path d="M210,0.49632598 C94.0198544,0.49632598 0,94.5165637 0,210.498968 C0,326.478277 94.0198544,420.503674 210,420.503674 C325.981165,420.503674 420,326.479309 420,210.498968 C420,94.5175956 325.981165,0.49632598 210,0.49632598 L210,0.49632598 L210,0.49632598 Z" id="play-2-icon" fill="#307800"/>
                <path d="M150.470097,326.196578 L150.470097,99.9586078 L332.740922,213.078625 L150.470097,326.196578 L150.470097,326.196578 Z" id="play" fill="#DBDBDB"/>
            </g>
        </g>
        <path d="M433.782548,316.675914 C396.141283,381.808641 326.575703,421.93 251.292151,421.93 C176.008599,421.93 106.443018,381.808641 68.8007306,316.675914 C50.1058691,284.325087 40.7047557,248.247836 40.5810299,212.147091 L7.10542736e-15,212.147091 L59.68292,126.637531 L123.118389,212.147091 L81.5199442,212.147091 C81.64367,241.187245 89.2165051,270.203904 104.25481,296.226555 C134.582961,348.703948 190.63278,381.031281 251.291128,381.031281 C311.947431,381.031281 367.99725,348.70497 398.327446,296.226555 C424.933599,250.189703 428.193415,194.783676 408.118142,146.446412 L445.28291,129.268909 C470.900279,189.616941 467.082163,259.057323 433.782548,316.675914 Z M399.990075,62.2566269 L373.267354,93.4643985 C380.873932,101.315629 387.766787,109.948304 393.817079,119.291943 L431.287582,101.973473 C422.382394,87.3548217 411.849344,74.0539021 399.990075,62.2566269 L399.990075,62.2566269 Z M304.344943,7.69333527 C287.958947,3.43471199 270.93285,1.11693405 253.587724,0.93 L253.587724,41.8481273 C266.247631,42.0187174 278.694852,43.5805872 290.734085,46.4550813 L304.344943,7.69333527 L304.344943,7.69333527 Z M222.911913,2.84020042 C203.4839,5.47566409 184.692921,10.7843869 167.018541,18.4915859 L192.183954,52.4308419 C202.089173,48.7534508 212.370682,45.9862139 222.911913,44.2026792 L222.911913,2.84020042 L222.911913,2.84020042 Z M164.021514,65.9340181 L139.564713,32.9508837 C126.11337,41.354744 113.591504,51.2714422 102.2844,62.5640976 L131.234185,91.4847363 C141.111797,81.6191129 152.133615,73.04977 164.021514,65.9340181 L164.021514,65.9340181 Z M376.732698,42.2730703 C363.320211,32.3482001 348.765561,24.049554 333.389823,17.5497651 L319.800439,56.2522643 C330.439832,60.9419595 340.580233,66.6940122 350.038608,73.4471325 L376.732698,42.2730703 L376.732698,42.2730703 Z" id="power" fill="#DBDBDB"/>
    </g>
</svg>